<svg width="65" height="13" viewBox="0 0 65 13" fill="none" xmlns="http://www.w3.org/2000/svg">
<path d="M6.656 10.288C7.30667 10.288 7.86667 10.1813 8.336 9.968C8.80533 9.744 9.296 9.392 9.808 8.912L11.024 10.16C9.84 11.472 8.4 12.128 6.704 12.128C5.01867 12.128 3.616 11.584 2.496 10.496C1.38667 9.408 0.832 8.032 0.832 6.368C0.832 4.704 1.39733 3.31733 2.528 2.208C3.66933 1.09867 5.104 0.544 6.832 0.544C8.57067 0.544 10.0213 1.184 11.184 2.464L9.984 3.776C9.45067 3.264 8.944 2.90667 8.464 2.704C7.99467 2.50133 7.44 2.4 6.8 2.4C5.66933 2.4 4.72 2.768 3.952 3.504C3.184 4.22933 2.8 5.16267 2.8 6.304C2.8 7.43467 3.17867 8.384 3.936 9.152C4.704 9.90933 5.61067 10.288 6.656 10.288ZM14.8269 9.76C15.3389 10.272 15.9842 10.528 16.7629 10.528C17.5415 10.528 18.1815 10.272 18.6829 9.76C19.1949 9.23733 19.4509 8.56533 19.4509 7.744C19.4509 6.92267 19.1949 6.256 18.6829 5.744C18.1815 5.22133 17.5415 4.96 16.7629 4.96C15.9842 4.96 15.3389 5.22133 14.8269 5.744C14.3255 6.256 14.0749 6.92267 14.0749 7.744C14.0749 8.56533 14.3255 9.23733 14.8269 9.76ZM19.9629 10.864C19.1095 11.7067 18.0429 12.128 16.7629 12.128C15.4829 12.128 14.4162 11.7067 13.5629 10.864C12.7095 10.0107 12.2829 8.97067 12.2829 7.744C12.2829 6.51733 12.7095 5.48267 13.5629 4.64C14.4162 3.78667 15.4829 3.36 16.7629 3.36C18.0429 3.36 19.1095 3.78667 19.9629 4.64C20.8162 5.48267 21.2429 6.51733 21.2429 7.744C21.2429 8.97067 20.8162 10.0107 19.9629 10.864ZM25.0724 7.392V12H23.2804V3.488H25.0724V5.04C25.3604 4.51733 25.755 4.10667 26.2564 3.808C26.7684 3.50933 27.3177 3.36 27.9044 3.36C28.8644 3.36 29.6377 3.65333 30.2244 4.24C30.8217 4.82667 31.1204 5.67467 31.1204 6.784V12H29.3284V7.328C29.3284 5.76 28.6777 4.976 27.3764 4.976C26.7577 4.976 26.219 5.184 25.7604 5.6C25.3017 6.00533 25.0724 6.60267 25.0724 7.392ZM35.7228 4.928V9.248C35.7228 9.65333 35.8294 9.97867 36.0428 10.224C36.2561 10.4587 36.5548 10.576 36.9388 10.576C37.3228 10.576 37.6908 10.3893 38.0428 10.016L38.7788 11.28C38.1494 11.8453 37.4508 12.128 36.6828 12.128C35.9254 12.128 35.2748 11.8667 34.7308 11.344C34.1974 10.8107 33.9308 10.096 33.9308 9.2V4.928H32.8588V3.488H33.9308V0.815999H35.7228V3.488H37.9628V4.928H35.7228ZM47.0983 12H45.4663V10.864C44.7623 11.7067 43.8183 12.128 42.6343 12.128C41.7489 12.128 41.0129 11.8773 40.4263 11.376C39.8503 10.8747 39.5623 10.208 39.5623 9.376C39.5623 8.53333 39.8716 7.904 40.4903 7.488C41.1089 7.072 41.9463 6.864 43.0023 6.864H45.3223V6.544C45.3223 5.41333 44.6929 4.848 43.4343 4.848C42.6449 4.848 41.8236 5.136 40.9703 5.712L40.1703 4.592C41.2049 3.77067 42.3783 3.36 43.6903 3.36C44.6929 3.36 45.5089 3.616 46.1383 4.128C46.7783 4.62933 47.0983 5.424 47.0983 6.512V12ZM45.3063 8.832V8.112H43.2903C41.9996 8.112 41.3543 8.51733 41.3543 9.328C41.3543 9.744 41.5143 10.064 41.8343 10.288C42.1543 10.5013 42.5969 10.608 43.1623 10.608C43.7383 10.608 44.2396 10.448 44.6663 10.128C45.0929 9.808 45.3063 9.376 45.3063 8.832ZM53.3689 12.128C52.1849 12.128 51.1662 11.728 50.3129 10.928C49.4595 10.1173 49.0329 9.06133 49.0329 7.76C49.0329 6.45867 49.4755 5.40267 50.3609 4.592C51.2569 3.77067 52.3449 3.36 53.6249 3.36C54.9049 3.36 55.9875 3.80267 56.8729 4.688L55.8169 5.984C55.0809 5.344 54.3395 5.024 53.5929 5.024C52.8462 5.024 52.1955 5.27467 51.6409 5.776C51.0969 6.26667 50.8249 6.90667 50.8249 7.696C50.8249 8.47467 51.0969 9.136 51.6409 9.68C52.1849 10.224 52.8515 10.496 53.6409 10.496C54.4409 10.496 55.1929 10.1333 55.8969 9.408L56.9529 10.56C55.9182 11.6053 54.7235 12.128 53.3689 12.128ZM61.0196 4.928V9.248C61.0196 9.65333 61.1263 9.97867 61.3396 10.224C61.553 10.4587 61.8516 10.576 62.2356 10.576C62.6196 10.576 62.9876 10.3893 63.3396 10.016L64.0756 11.28C63.4463 11.8453 62.7476 12.128 61.9796 12.128C61.2223 12.128 60.5716 11.8667 60.0276 11.344C59.4943 10.8107 59.2276 10.096 59.2276 9.2V4.928H58.1556V3.488H59.2276V0.815999H61.0196V3.488H63.2596V4.928H61.0196Z" fill="url(#paint0_linear_56_26)"/>
<defs>
<linearGradient id="paint0_linear_56_26" x1="2" y1="12" x2="61" y2="12" gradientUnits="userSpaceOnUse">
<stop stop-color="#903AFF"/>
<stop offset="1" stop-color="#FF26B9"/>
</linearGradient>
</defs>
</svg>
